# xmcd
# 
# Track frame offsets:
#     150
#     1840
#     20504
#     40473
#     54866
#     73018
#     93635
#     110083
#     128472
#     132741
#     154978
#     174024
# 
# Disc length: 2705
# 
# Revision: 0
# Processed by: cddbd v1.5.2PL0 Copyright (c) Steve Scherf et al.
# Submitted via: fre:ac v1.0.27
# 
DISCID=9b0a8f0c
DTITLE=P-A-U-L - Gunshot Lullabye
DYEAR=2009
DGENRE=Blues
TTITLE0=Intro
TTITLE1=Our Bullets Will Be Fairytales
TTITLE2=I Ain't Givin' You Up
TTITLE3=Martyred Eyes
TTITLE4=I Will Never Tell
TTITLE5=Gunshot Lullabye
TTITLE6=Detroit is on Fire
TTITLE7=Mercy Kissin'
TTITLE8=Segue
TTITLE9=Rattlesnakes and Butterflies
TTITLE10=Diamonds For Coal
TTITLE11=Behind the Brothel
EXTD=
EXTT0=
EXTT1=
EXTT2=
EXTT3=
EXTT4=
EXTT5=
EXTT6=
EXTT7=
EXTT8=
EXTT9=
EXTT10=
EXTT11=
PLAYORDER=
